<?xml version="1.0" encoding="utf-8"?>
<svg version="1.1" xmlns="http://www.w3.org/2000/svg" xmlns:xlink="http://www.w3.org/1999/xlink" x="0px" y="0px"
	 width="309.995" height="280.553" viewBox="0 0 309.995 280.553" enable-background="new 0 0 309.995 280.553"
	 xml:space="preserve">
<g>
	<defs>
		<rect id="logo-1" width="309.995" height="280.553"/>
	</defs>
	<clipPath id="logo-2">
		<use xlink:href="#logo-1"  overflow="visible"/>
	</clipPath>
	<path clip-path="url(#logo-2)" fill="#000000" d="M285.506,218.544v-29.252h-77.915v29.252h18.198v-7.684h7.28v50.146h-9.438
		v18.198h45.833v-18.198h-9.436v-50.146h7.279v7.684H285.506z M204.693,207.492v-18.199h-40.44v18.199h6.74v39.766
		c0,8.627-4.449,11.054-9.436,11.054c-4.854,0-9.437-2.966-9.437-11.188v-39.631h6.74v-18.199H118.42v18.199h6.74v40.439
		c0,23.59,14.828,32.622,36.397,32.622c21.567,0,36.396-8.492,36.396-32.622v-40.439H204.693z M113.907,279.206v-18.198h-6.74
		v-53.516h6.74v-18.199H70.771l-13.75,43.405l-13.885-43.405H0v18.199h6.74v53.516H0v18.198h33.7v-46.642l12.806,46.642h20.895
		l12.806-46.642v46.642H113.907z"/>
</g>
<path fill="#000000" d="M47.989,95.688v18.198h5.393v15.503H33.701v-15.503h8.088V95.688H0v18.198h6.74v53.516H0v18.199h39.093
	v-18.199h-5.392v-15.772h19.681v15.772h-8.088v18.199h41.788v-18.199h-6.74v-53.516h6.74V95.688H47.989z M91.594,95.688v18.198h6.74
	v53.516h-6.74v18.199h68.614v-27.905h-18.197v7.01h-16.716v-14.423h25.073v-20.894h-25.073v-12.807h16.716v7.01h18.197V95.688
	H91.594z M164.658,95.688v18.198h6.74v53.516h-6.74v18.199h62.009V155h-18.198v8.357h-10.109v-49.472h9.436V95.688H164.658z"/>
<g>
	<defs>
		<rect id="logo-3" width="309.995" height="280.553"/>
	</defs>
	<clipPath id="logo-4">
		<use xlink:href="#logo-3"  overflow="visible"/>
	</clipPath>
	<path clip-path="url(#logo-4)" fill="#000000" d="M247.758,91.26V73.062h-7.278l-14.425-30.196l12.941-23.32h8.762V1.348h-27.634
		l-22.378,42.059l22.378,47.854H247.758z M204.619,91.26V73.062h-6.74V19.546h6.74V1.348h-40.441v18.199h6.74v53.516h-6.74V91.26
		H204.619z M157.644,62.547c0-19.276-12.401-25.342-23.32-28.038l-6.066-1.483c-5.662-1.348-10.111-2.696-10.111-6.74
		s2.966-5.527,9.571-5.527c3.37,0,7.684,0.674,10.38,1.348V30.6h18.198V7.009C151.847,4.718,142.546,0,125.021,0
		c-21.568,0-34.509,10.65-34.509,29.118c0,20.489,15.233,26.016,23.995,28.308l7.144,1.887c5.123,1.348,8.358,2.831,8.358,6.875
		c0,3.909-3.1,5.392-9.166,5.392c-3.371,0-5.932-0.539-10.785-1.752v-7.819H91.86v24.399c10.11,3.909,18.738,6.201,31.139,6.201
		C142.546,92.608,157.644,86.677,157.644,62.547 M49.068,53.92H36.936l5.931-28.173L49.068,53.92z M86.138,91.26V73.062h-6.74
		L60.121,1.348H11.458v18.199h9.571L6.74,73.062H0V91.26h29.521l3.775-16.446h19.411l3.91,16.446H86.138z"/>
</g>
</svg>
